# xmcd CD database file
#
# Track frame offsets:
#	150
#	20095
#	43470
#	78997
#	109712
#	124130
#	154559
#	166192
#	201165
#
# Disc length: 2970 seconds
#
# Revision: 0
# Processed by: cddbd v1.5.2PL0 Copyright (c) Steve Scherf et al.
# Submitted via: CDex 1.51
#
DISCID=710b9809
DTITLE=Lenny Popkin Eddie Gomez Carol Tristano - New York Moment
DYEAR=2004
DGENRE=Jazz
TTITLE0=New York Moment
TTITLE1=Mystery
TTITLE2=You Don´t Know What Love Is
TTITLE3=Origin
TTITLE4=Entracte
TTITLE5=Like A Dream
TTITLE6=Conundrum
TTITLE7=Body And Soul
TTITLE8=Another Time
EXTD=YEAR: 2004
EXTT0=
EXTT1=
EXTT2=
EXTT3=
EXTT4=
EXTT5=
EXTT6=
EXTT7=
EXTT8=
PLAYORDER=
